<?xml version="1.0" standalone="no"?>
<!DOCTYPE svg PUBLIC "-//W3C//DTD SVG 20010904//EN"
 "http://www.w3.org/TR/2001/REC-SVG-20010904/DTD/svg10.dtd">
<svg version="1.0" xmlns="http://www.w3.org/2000/svg"
 width="24.000000pt" height="24.000000pt" viewBox="0 0 24.000000 24.000000"
 preserveAspectRatio="xMidYMid meet">

<g transform="translate(0.000000,24.000000) scale(0.100000,-0.100000)"
fill="#000000" stroke="none">
<path d="M60 200 c0 -36 3 -40 24 -40 13 0 26 -6 29 -12 4 -10 7 -10 18 0 7 6
21 12 31 12 14 0 18 8 18 40 l0 40 -60 0 -60 0 0 -40z m110 1 c0 -23 -5 -30
-25 -33 -14 -3 -36 -3 -50 0 -20 3 -25 10 -25 33 0 28 2 29 50 29 48 0 50 -1
50 -29z"/>
<path d="M0 194 c0 -34 20 -63 43 -64 16 0 6 19 -13 25 -26 8 -28 61 -2 68 13
4 11 5 -5 6 -20 1 -23 -4 -23 -35z"/>
<path d="M213 223 c25 -7 23 -60 -3 -68 -19 -6 -29 -25 -12 -25 22 1 42 30 42
64 0 31 -3 36 -22 35 -17 -1 -19 -2 -5 -6z"/>
<path d="M94 105 c-4 -9 -2 -21 4 -27 16 -16 47 -5 47 17 0 26 -42 34 -51 10z
m46 -10 c0 -8 -9 -15 -20 -15 -11 0 -20 7 -20 15 0 8 9 15 20 15 11 0 20 -7
20 -15z"/>
<path d="M24 99 c-10 -17 13 -36 27 -22 12 12 4 33 -11 33 -5 0 -12 -5 -16
-11z m26 -9 c0 -5 -4 -10 -10 -10 -5 0 -10 5 -10 10 0 6 5 10 10 10 6 0 10 -4
10 -10z"/>
<path d="M184 99 c-10 -17 13 -36 27 -22 12 12 4 33 -11 33 -5 0 -12 -5 -16
-11z m26 -9 c0 -5 -4 -10 -10 -10 -5 0 -10 5 -10 10 0 6 5 10 10 10 6 0 10 -4
10 -10z"/>
<path d="M3 45 c-3 -9 -3 -19 1 -22 3 -4 6 1 6 10 0 9 11 17 28 20 l27 4 -28
2 c-17 0 -30 -5 -34 -14z"/>
<path d="M207 53 c12 -2 24 -11 26 -19 3 -9 4 -8 3 3 -1 12 -10 18 -26 19 -21
1 -21 0 -3 -3z"/>
<path d="M70 30 c-7 -14 -7 -20 0 -20 5 0 10 7 10 15 0 11 11 15 40 15 29 0
40 -4 40 -15 0 -8 5 -15 10 -15 7 0 7 6 0 20 -8 15 -21 20 -50 20 -29 0 -42
-5 -50 -20z"/>
</g>
</svg>
