<?xml version="1.0" standalone="no"?>
<!DOCTYPE svg PUBLIC "-//W3C//DTD SVG 20010904//EN"
 "http://www.w3.org/TR/2001/REC-SVG-20010904/DTD/svg10.dtd">
<svg version="1.0" xmlns="http://www.w3.org/2000/svg"
 width="24.000000pt" height="24.000000pt" viewBox="0 0 24.000000 24.000000"
 preserveAspectRatio="xMidYMid meet">

<g transform="translate(0.000000,24.000000) scale(0.100000,-0.100000)"
fill="#000000" stroke="none">
<path d="M20 221 c-13 -25 -13 -177 0 -202 7 -12 21 -19 40 -19 38 0 39 18 3
22 l-28 3 0 95 0 95 73 3 72 3 0 -41 c0 -22 5 -40 10 -40 14 0 12 74 -2 88 -7
7 -41 12 -85 12 -61 0 -74 -3 -83 -19z"/>
<path d="M55 170 c3 -5 26 -10 50 -10 24 0 47 5 50 10 4 6 -15 10 -50 10 -35
0 -54 -4 -50 -10z"/>
<path d="M55 140 c-4 -6 15 -10 49 -10 31 0 56 5 56 10 0 13 -97 13 -105 0z"/>
<path d="M50 100 c0 -5 16 -10 35 -10 19 0 35 5 35 10 0 6 -16 10 -35 10 -19
0 -35 -4 -35 -10z"/>
<path d="M152 77 c-39 -40 -44 -82 -9 -72 32 9 88 71 81 90 -10 24 -38 17 -72
-18z m18 -32 c-13 -14 -26 -23 -28 -20 -7 7 29 45 41 45 6 0 0 -11 -13 -25z"/>
</g>
</svg>
