<?xml version="1.0" standalone="no"?>
<!DOCTYPE svg PUBLIC "-//W3C//DTD SVG 20010904//EN"
 "http://www.w3.org/TR/2001/REC-SVG-20010904/DTD/svg10.dtd">
<svg version="1.0" xmlns="http://www.w3.org/2000/svg"
 width="24.000000pt" height="24.000000pt" viewBox="0 0 24.000000 24.000000"
 preserveAspectRatio="xMidYMid meet">

<g transform="translate(0.000000,24.000000) scale(0.100000,-0.100000)"
fill="#000000" stroke="none">
<path d="M4 227 c-2 -7 -3 -60 -2 -118 l3 -104 115 0 115 0 0 115 0 115 -113
3 c-87 2 -114 0 -118 -11z m221 -22 c0 -18 -8 -20 -99 -23 -101 -3 -124 4
-113 33 6 13 23 15 109 13 95 -3 103 -4 103 -23z m3 -112 l-3 -78 -105 0 -105
0 -3 78 -3 77 111 0 111 0 -3 -77z"/>
<path d="M47 154 c-4 -4 -7 -18 -7 -31 0 -22 3 -23 81 -23 l80 0 -3 28 c-3 26
-5 27 -73 30 -39 1 -74 0 -78 -4z m133 -29 c0 -12 -13 -15 -60 -15 -47 0 -60
3 -60 15 0 12 13 15 60 15 47 0 60 -3 60 -15z"/>
<path d="M40 55 c0 -23 4 -25 45 -25 41 0 45 2 45 25 0 23 -4 25 -45 25 -41 0
-45 -2 -45 -25z m70 0 c0 -9 -9 -15 -25 -15 -16 0 -25 6 -25 15 0 9 9 15 25
15 16 0 25 -6 25 -15z"/>
<path d="M140 55 c0 -21 5 -25 30 -25 25 0 30 4 30 25 0 21 -5 25 -30 25 -25
0 -30 -4 -30 -25z m40 0 c0 -8 -4 -15 -10 -15 -5 0 -10 7 -10 15 0 8 5 15 10
15 6 0 10 -7 10 -15z"/>
</g>
</svg>
